<svg width="135" height="164" viewBox="0 0 135 164" fill="none" xmlns="http://www.w3.org/2000/svg">
<g clip-path="url(#clip0_5490_8824)">
<path d="M135 158.528C135 161.513 132.542 164 129.593 164H5.40655C2.45752 164 0 161.513 0 158.528V5.47219C0 2.48736 2.45752 0 5.40655 0H129.593C132.542 0 135 2.48736 135 5.47219V158.528Z" fill="#FFC800"/>
<path d="M128.448 153.886C128.448 155.876 126.81 157.534 124.844 157.534H10.1591C8.19304 157.534 6.55469 155.876 6.55469 153.886V10.1169C6.55469 8.12699 8.19304 6.46875 10.1591 6.46875H125.007C126.973 6.46875 128.612 8.12699 128.612 10.1169L128.448 153.886Z" fill="#FF4802"/>
<path d="M123.695 150.07C123.695 151.562 122.549 152.723 121.074 152.723H13.926C12.4515 152.723 11.3047 151.562 11.3047 150.07V13.7626C11.3047 12.2701 12.4515 11.1094 13.926 11.1094H121.074C122.549 11.1094 123.695 12.2701 123.695 13.7626V150.07Z" fill="#D70000"/>
<path d="M119.929 146.918C119.929 148.079 118.946 148.908 117.963 148.908H17.2043C16.0575 148.908 15.2383 147.913 15.2383 146.918V16.9118C15.2383 15.751 16.2213 14.9219 17.2043 14.9219H117.963C119.11 14.9219 119.929 15.9168 119.929 16.9118V146.918Z" fill="#202B77"/>
<path d="M67.01 138.961C63.2418 138.961 62.5865 137.303 62.5865 133.323V127.021H65.6993V134.152C65.6993 135.976 65.8632 136.805 67.1738 136.805C68.3207 136.805 68.6484 136.142 68.6484 134.152V127.021H71.5974V133.323C71.5974 137.634 70.4505 138.961 67.01 138.961ZM69.1399 125.861C68.3207 125.861 67.6653 125.197 67.6653 124.368C67.6653 123.539 68.3207 122.71 69.1399 122.71C69.959 122.71 70.6144 123.539 70.6144 124.368C70.6144 125.197 69.959 125.861 69.1399 125.861ZM64.8801 125.861C64.061 125.861 63.4056 125.197 63.4056 124.368C63.4056 123.539 64.061 122.71 64.8801 122.71C65.6993 122.71 66.3547 123.539 66.3547 124.368C66.3547 125.197 65.6993 125.861 64.8801 125.861ZM73.7272 138.629V127.021H77.0039C81.0998 127.021 82.902 127.851 82.902 132.825C82.902 137.8 81.0998 138.629 77.0039 138.629H73.7272ZM77.4954 136.639C79.1338 136.639 79.7891 135.644 79.7891 132.825C79.7891 130.172 79.1338 129.011 77.4954 129.011H76.8401V136.639H77.4954ZM56.1969 138.961C54.3947 138.961 53.084 138.629 52.4287 138.463L52.9202 136.308C54.067 136.639 54.8862 136.805 55.5416 136.805C56.3607 136.805 57.3437 136.639 57.3437 135.644C57.3437 134.981 56.5246 134.484 55.7054 133.986H55.5416C54.2309 133.157 52.7564 132.328 52.7564 130.504C52.7564 128.348 54.2309 127.187 57.0161 127.187C58.4906 127.187 59.3098 127.353 60.4566 127.685L59.9651 129.675C59.6374 129.509 58.6544 129.177 57.5076 129.177C56.5246 129.177 55.8692 129.509 55.8692 130.338C55.8692 131.001 56.6884 131.499 57.6714 131.996H57.8353C59.1459 132.825 60.7843 133.654 60.7843 135.478C60.7843 137.634 59.3098 138.961 56.1969 138.961ZM42.9263 120.057C42.5986 118.73 42.1071 116.409 41.7794 115.414H32.7685C32.4408 116.409 31.9493 118.73 31.6217 120.057H23.5938C27.0343 109.112 28.5088 104.635 32.4408 94.8516H42.2709C46.0391 104.469 47.6775 109.112 51.118 120.057H42.9263ZM33.9154 110.107H40.6326C39.6496 106.791 37.8474 101.153 37.3559 99.4946C36.7005 100.987 34.8984 106.625 33.9154 110.107ZM59.8013 120.057C55.5416 120.057 53.2479 117.569 53.2479 113.258V94.8516H60.7843V111.766C60.7843 113.921 61.4396 114.419 63.5695 114.419H70.942L72.0889 120.057H59.8013ZM102.562 94.8516H110.099V120.057H102.562V94.8516ZM75.0379 120.057V94.8516H85.3595C93.0598 94.8516 98.3025 98.0022 98.3025 107.288C98.3025 116.243 94.0428 120.057 85.6872 120.057H75.0379ZM82.5743 114.585H84.7042C89.2916 114.585 91.0937 112.429 91.0937 107.288C91.0937 102.314 88.8 100.324 84.3765 100.324H82.5743V114.585Z" fill="white"/>
<path d="M64.5519 23.875C59.9645 23.875 57.9985 27.1915 56.1963 32.332L40.4681 79.7577C39.1575 83.9033 37.3553 86.2248 34.4062 86.5565V86.8881H42.598C47.1854 86.8881 49.1514 83.5717 50.9536 78.4311L66.8456 31.1713C68.1562 27.0257 70.1223 24.7041 73.0713 24.3725V24.0408C71.5968 23.875 64.8796 23.875 64.5519 23.875Z" fill="url(#paint0_linear_5490_8824)"/>
<path d="M79.4618 23.875C74.8744 23.875 72.9084 27.1915 71.1062 32.332L55.2142 79.5919C53.9036 83.7375 52.1014 86.059 49.1523 86.3907V86.7223H57.3441C61.9315 86.7223 63.8975 83.4058 65.6997 78.2653L81.5917 31.0054C82.9023 26.8598 84.8684 24.5383 87.8174 24.2066V23.875H79.4618Z" fill="url(#paint1_linear_5490_8824)"/>
<path d="M49.6428 24.0469C45.0554 24.0469 43.0894 27.3634 41.2872 32.5039L23.1016 87.06H27.6889C32.2763 87.06 34.2423 83.7435 36.0445 78.603L51.9365 31.1773C53.2472 27.0317 55.2132 24.7102 58.1622 24.3785V24.0469H49.6428Z" fill="url(#paint2_linear_5490_8824)"/>
<path d="M97.154 45.9329C95.3518 42.2848 93.5496 41.9531 90.2729 41.9531H81.9173L78.6406 51.7367H94.8603C97.154 51.7367 99.12 52.0684 100.431 53.8925H100.758C100.758 53.7266 97.4816 46.9278 97.154 45.9329Z" fill="url(#paint3_linear_5490_8824)"/>
<path d="M103.053 60.0267C101.415 56.5443 99.4491 56.0469 96.1724 56.0469H77.3314L74.0547 65.8305H100.76C103.217 65.8305 105.019 66.1621 106.33 67.9862H106.658C106.658 67.9862 103.381 60.8558 103.053 60.0267Z" fill="url(#paint4_linear_5490_8824)"/>
<path d="M109.112 74.6179C107.474 70.8039 105.344 70.1406 102.068 70.1406H72.5773L69.7921 78.266C69.6282 78.9293 69.4644 79.4268 69.1367 79.9242H106.491C108.621 79.9242 110.423 80.2559 111.898 82.08H112.225C112.225 82.2458 109.276 75.1153 109.112 74.6179Z" fill="url(#paint5_linear_5490_8824)"/>
</g>
<defs>
<linearGradient id="paint0_linear_5490_8824" x1="54.2303" y1="87.5514" x2="54.2303" y2="24.6395" gradientUnits="userSpaceOnUse">
<stop stop-color="#1482AF"/>
<stop offset="0.02" stop-color="#3798BF"/>
<stop offset="0.054" stop-color="#6EB9D8"/>
<stop offset="0.083" stop-color="#95D1EA"/>
<stop offset="0.106" stop-color="#AEE0F5"/>
<stop offset="0.12" stop-color="#B7E5F9"/>
<stop offset="0.2" stop-color="#97DAF6"/>
<stop offset="0.334" stop-color="#67CAF2"/>
<stop offset="0.4" stop-color="#55C3F0"/>
<stop offset="0.6" stop-color="#55C3F0"/>
<stop offset="0.666" stop-color="#67CAF2"/>
<stop offset="0.8" stop-color="#97DAF6"/>
<stop offset="0.88" stop-color="#B7E5F9"/>
<stop offset="0.894" stop-color="#AEE0F5"/>
<stop offset="0.917" stop-color="#95D1EA"/>
<stop offset="0.947" stop-color="#6EB9D8"/>
<stop offset="0.98" stop-color="#3798BF"/>
<stop offset="1" stop-color="#1482AF"/>
</linearGradient>
<linearGradient id="paint1_linear_5490_8824" x1="68.9764" y1="87.3856" x2="68.9764" y2="24.5383" gradientUnits="userSpaceOnUse">
<stop stop-color="#1482AF"/>
<stop offset="0.02" stop-color="#3798BF"/>
<stop offset="0.054" stop-color="#6EB9D8"/>
<stop offset="0.083" stop-color="#95D1EA"/>
<stop offset="0.106" stop-color="#AEE0F5"/>
<stop offset="0.12" stop-color="#B7E5F9"/>
<stop offset="0.2" stop-color="#97DAF6"/>
<stop offset="0.334" stop-color="#67CAF2"/>
<stop offset="0.4" stop-color="#55C3F0"/>
<stop offset="0.6" stop-color="#55C3F0"/>
<stop offset="0.666" stop-color="#67CAF2"/>
<stop offset="0.8" stop-color="#97DAF6"/>
<stop offset="0.88" stop-color="#B7E5F9"/>
<stop offset="0.894" stop-color="#AEE0F5"/>
<stop offset="0.917" stop-color="#95D1EA"/>
<stop offset="0.947" stop-color="#6EB9D8"/>
<stop offset="0.98" stop-color="#3798BF"/>
<stop offset="1" stop-color="#1482AF"/>
</linearGradient>
<linearGradient id="paint2_linear_5490_8824" x1="41.1234" y1="87.7233" x2="41.1234" y2="24.7102" gradientUnits="userSpaceOnUse">
<stop stop-color="#1482AF"/>
<stop offset="0.02" stop-color="#3798BF"/>
<stop offset="0.054" stop-color="#6EB9D8"/>
<stop offset="0.083" stop-color="#95D1EA"/>
<stop offset="0.106" stop-color="#AEE0F5"/>
<stop offset="0.12" stop-color="#B7E5F9"/>
<stop offset="0.2" stop-color="#97DAF6"/>
<stop offset="0.334" stop-color="#67CAF2"/>
<stop offset="0.4" stop-color="#55C3F0"/>
<stop offset="0.6" stop-color="#55C3F0"/>
<stop offset="0.666" stop-color="#67CAF2"/>
<stop offset="0.8" stop-color="#97DAF6"/>
<stop offset="0.88" stop-color="#B7E5F9"/>
<stop offset="0.894" stop-color="#AEE0F5"/>
<stop offset="0.917" stop-color="#95D1EA"/>
<stop offset="0.947" stop-color="#6EB9D8"/>
<stop offset="0.98" stop-color="#3798BF"/>
<stop offset="1" stop-color="#1482AF"/>
</linearGradient>
<linearGradient id="paint3_linear_5490_8824" x1="79.7498" y1="53.6503" x2="97.9433" y2="46.2042" gradientUnits="userSpaceOnUse">
<stop offset="0.2" stop-color="#55C3F0"/>
<stop offset="0.316" stop-color="#67CAF2"/>
<stop offset="0.549" stop-color="#97DAF6"/>
<stop offset="0.69" stop-color="#B7E5F9"/>
<stop offset="0.727" stop-color="#AEE0F5"/>
<stop offset="0.786" stop-color="#95D1EA"/>
<stop offset="0.862" stop-color="#6EB9D8"/>
<stop offset="0.949" stop-color="#3798BF"/>
<stop offset="1" stop-color="#1482AF"/>
</linearGradient>
<linearGradient id="paint4_linear_5490_8824" x1="75.8405" y1="69.6577" x2="102.983" y2="58.5503" gradientUnits="userSpaceOnUse">
<stop offset="0.3" stop-color="#55C3F0"/>
<stop offset="0.409" stop-color="#67CAF2"/>
<stop offset="0.628" stop-color="#97DAF6"/>
<stop offset="0.76" stop-color="#B7E5F9"/>
<stop offset="0.788" stop-color="#AEE0F5"/>
<stop offset="0.835" stop-color="#95D1EA"/>
<stop offset="0.893" stop-color="#6EB9D8"/>
<stop offset="0.961" stop-color="#3798BF"/>
<stop offset="1" stop-color="#1482AF"/>
</linearGradient>
<linearGradient id="paint5_linear_5490_8824" x1="71.7614" y1="85.6336" x2="107.79" y2="70.8892" gradientUnits="userSpaceOnUse">
<stop stop-color="#73CDF3"/>
<stop offset="0.115" stop-color="#62C8F1"/>
<stop offset="0.242" stop-color="#58C4F0"/>
<stop offset="0.4" stop-color="#55C3F0"/>
<stop offset="0.497" stop-color="#67CAF2"/>
<stop offset="0.692" stop-color="#97DAF6"/>
<stop offset="0.81" stop-color="#B7E5F9"/>
<stop offset="0.832" stop-color="#AEE0F5"/>
<stop offset="0.869" stop-color="#95D1EA"/>
<stop offset="0.915" stop-color="#6EB9D8"/>
<stop offset="0.969" stop-color="#3798BF"/>
<stop offset="1" stop-color="#1482AF"/>
</linearGradient>
<clipPath id="clip0_5490_8824">
<rect width="135" height="164" fill="white"/>
</clipPath>
</defs>
</svg>
