<svg width="214" height="120" viewBox="0 0 214 120" fill="none" xmlns="http://www.w3.org/2000/svg">
<path d="M59.8085 79.3984H41.3086V112.476H59.8085C68.9415 112.454 76.3148 105.054 76.2925 95.9429C76.3148 86.8318 68.9415 79.4318 59.8085 79.4096V79.3984ZM57.7592 105.287H51.3549V86.5762H57.3248C63.2167 86.5762 66.2685 89.1873 66.2685 95.7096C66.2685 102.232 63.8738 105.287 57.7592 105.287Z" fill="#FF4800"/>
<path d="M128.574 79.3984H120.366L119.987 80.2318L107.78 106.343L104.906 112.487H114.941L117.169 107.71H131.782L134.009 112.487H144.045L128.964 80.2429L128.585 79.4096L128.574 79.3984ZM120.633 100.287L124.475 92.0762L128.318 100.287H120.633Z" fill="#FF4800"/>
<path d="M89.6133 105.287V99.1984H102.767V91.5762H89.6133V86.5762H107.779V79.3984H79.5781V112.476H101.598L102.188 111.198L104.95 105.287H89.6133Z" fill="#FF4800"/>
<path d="M154.426 105.068V79.3906H144.391V104.802C144.391 105.402 144.457 105.98 144.591 106.535C144.836 107.591 145.304 108.568 145.928 109.402C147.331 111.257 149.559 112.457 152.076 112.457H172.592L170.631 105.057H154.437L154.426 105.068Z" fill="#FF4800"/>
<path d="M207.943 89.9462V89.424C207.943 83.8906 203.443 79.3906 197.886 79.3906H182.95C177.414 79.3906 172.926 83.8684 172.926 89.3906C172.926 94.9128 177.169 99.1351 182.527 99.3351H182.961C182.961 99.3462 195.38 99.8128 195.38 99.8128C196.794 99.8684 197.908 101.024 197.908 102.435C197.908 103.846 196.727 105.057 195.279 105.057H185.589C184.142 105.057 182.961 103.88 182.961 102.435V101.924H172.926V102.468C172.926 107.991 177.414 112.468 182.95 112.468H197.886C203.432 112.468 207.932 107.98 207.932 102.446C207.932 97.1017 203.7 92.724 198.353 92.524L197.908 92.5017L185.489 92.0351C184.075 91.9795 182.961 90.824 182.961 89.4128C182.961 87.9684 184.142 86.7906 185.589 86.7906H195.279C196.727 86.7906 197.908 87.9684 197.908 89.4128V89.924H207.943V89.9462Z" fill="#FF4800"/>
<path d="M54.6983 7.52344C54.6983 7.52344 32.6454 23.4234 29.0479 49.7012C26.8315 65.8568 30.0726 76.6679 31.6207 79.8012C31.8992 80.4012 32.2556 80.9568 32.69 81.4568C24.1027 71.5901 15.5711 48.6679 16.3508 35.5345C16.3508 35.5345 2.30597 65.7123 6.78338 84.279C11.2608 102.835 30.7074 112.479 30.7074 112.479C30.7074 112.479 24.6262 99.3901 26.6198 90.1901C26.6198 90.1901 32.534 100.246 38.7267 105.668V76.8345H59.7994C64.9005 76.8457 69.7009 78.8457 73.2984 82.4568C73.7662 82.9234 74.2118 83.4123 74.6238 83.9234C77.8204 80.0123 79.4911 70.9234 73.0423 62.5123C52.4262 35.579 52.6489 23.6457 54.6871 7.53455L54.6983 7.52344Z" fill="#FF4800"/>
<path d="M109.607 40.2266H96.4754C91.3965 52.9377 89.3138 58.971 84.7695 73.3043H95.4953C95.9074 71.571 96.6647 68.4932 97.0657 67.2155H109.017C109.395 68.4821 110.175 71.5821 110.587 73.3043H121.313C116.768 58.971 114.686 52.9377 109.607 40.2266ZM98.5693 60.071C99.8279 55.6377 102.2 48.2821 103.047 46.1821C103.882 48.2821 106.266 55.6377 107.524 60.071H98.5804H98.5693Z" fill="#FF4800"/>
<path d="M149.435 73.2965L147.954 65.9521H138.208C135.246 65.9521 134.488 65.2299 134.488 62.4521V40.2188H124.453V64.3632C124.453 70.1188 127.527 73.2965 133.096 73.2965H149.435Z" fill="#FF4800"/>
<path d="M200.012 40.2266H189.988V73.3043H200.012V40.2266Z" fill="#FF4800"/>
<path d="M167.277 40.2266H153.422V73.3043H167.723C178.894 73.3043 184.597 68.3488 184.597 56.5043C184.597 44.6599 177.468 40.2266 167.277 40.2266ZM166.286 66.1488H163.457V47.371H165.93C171.9 47.371 174.873 49.9932 174.873 56.4932C174.873 62.9932 172.423 66.1488 166.286 66.1488Z" fill="#FF4800"/>
</svg>
