<svg width="24" height="24" viewBox="0 0 24 24" fill="none" xmlns="http://www.w3.org/2000/svg">
  <g clip-path="url(#clip0_98_1151)">
    <path
      d="M18.39 18.3999C17.65 18.3999 17.05 18.9999 17.05 19.7399C17.05 20.4799 17.65 21.0899 18.39 21.0899C19.13 21.0899 19.74 20.4799 19.74 19.7399C19.74 18.9999 19.13 18.3999 18.39 18.3999ZM18.24 19.7399C18.24 19.6599 18.31 19.5899 18.39 19.5899C18.48 19.5899 18.55 19.6599 18.55 19.7399C18.55 19.9199 18.24 19.9199 18.24 19.7399ZM8.84 18.3999C8.1 18.3999 7.5 18.9999 7.5 19.7399C7.5 20.4799 8.1 21.0899 8.84 21.0899C9.58 21.0899 10.18 20.4799 10.18 19.7399C10.18 18.9999 9.58 18.3999 8.84 18.3999ZM8.68 19.7399C8.68 19.6599 8.75 19.5899 8.84 19.5899C8.93 19.5899 9 19.6599 9 19.7399C9 19.9199 8.68 19.9199 8.68 19.7399Z"
      fill="#0B102F"/>
    <path
      d="M18.5502 19.7398C18.5502 19.9198 18.2402 19.9198 18.2402 19.7398C18.2402 19.6598 18.3102 19.5898 18.3902 19.5898C18.4802 19.5898 18.5502 19.6598 18.5502 19.7398Z"
      fill="#0B102F"/>
    <path
      d="M9.00018 19.7398C9.00018 19.9198 8.68018 19.9198 8.68018 19.7398C8.68018 19.6598 8.75018 19.5898 8.84018 19.5898C8.93018 19.5898 9.00018 19.6598 9.00018 19.7398Z"
      fill="#0B102F"/>
    <path
      d="M3.75 3.75H4.02C4.49 3.75 4.73 3.75 4.92 3.84C5.09 3.92 5.24 4.04 5.34 4.19C5.46 4.36 5.5 4.6 5.59 5.06L7.75 16.75H18.17C18.62 16.75 18.85 16.75 19.04 16.67C19.21 16.6 19.35 16.49 19.46 16.34C19.58 16.17 19.63 15.95 19.73 15.51L21.3 8.71C21.45 8.04 21.53 7.71 21.45 7.44C21.38 7.21 21.22 7.01 21.01 6.89C20.77 6.75 20.43 6.75 19.74 6.75H6.25"
      stroke="#0B102F" stroke-width="1.5" stroke-linecap="round" stroke-linejoin="round"/>
  </g>
  <defs>
    <clipPath id="clip0_98_1151">
      <rect width="19.23" height="18.09" fill="white" transform="translate(3 3)"/>
    </clipPath>
  </defs>
</svg>
