<svg width="25" height="24" viewBox="0 0 25 24" fill="none" xmlns="http://www.w3.org/2000/svg">
  <mask id="mask0_1299_12090" style="mask-type:luminance" maskUnits="userSpaceOnUse" x="2" y="2" width="21" height="20">
    <path fill-rule="evenodd" clip-rule="evenodd" d="M2.5 2H22.4999V22H2.5V2Z" fill="white"/>
  </mask>
  <g mask="url(#mask0_1299_12090)">
    <path fill-rule="evenodd" clip-rule="evenodd"
          d="M8.164 3.5C5.635 3.5 4 5.233 4 7.916V16.084C4 18.767 5.635 20.5 8.164 20.5H16.832C19.364 20.5 21 18.767 21 16.084V7.916C21 5.233 19.364 3.5 16.834 3.5H8.164ZM16.832 22H8.164C4.776 22 2.5 19.622 2.5 16.084V7.916C2.5 4.378 4.776 2 8.164 2H16.834C20.223 2 22.5 4.378 22.5 7.916V16.084C22.5 19.622 20.223 22 16.832 22Z"
          fill="#fff"/>
  </g>
  <path fill-rule="evenodd" clip-rule="evenodd"
        d="M12.4941 16.75C12.0801 16.75 11.7441 16.414 11.7441 16V12C11.7441 11.586 12.0801 11.25 12.4941 11.25C12.9081 11.25 13.2441 11.586 13.2441 12V16C13.2441 16.414 12.9081 16.75 12.4941 16.75Z"
        fill="#fff"/>
  <path fill-rule="evenodd" clip-rule="evenodd"
        d="M12.4991 9.20312C11.9461 9.20312 11.4941 8.75612 11.4941 8.20312C11.4941 7.65013 11.9371 7.20312 12.4891 7.20312H12.4991C13.0521 7.20312 13.4991 7.65013 13.4991 8.20312C13.4991 8.75612 13.0521 9.20312 12.4991 9.20312Z"
        fill="#fff"/>
</svg>
