<svg width="116" height="28" viewBox="0 0 116 28" fill="none" xmlns="http://www.w3.org/2000/svg">
  <g clip-path="url(#clip0_1310_18535)">
    <path d="M115.998 0H41.5859V27.9681H115.998V0Z" fill="#E63121"/>
    <path d="M41.581 0H0V27.9681H41.581V0Z" fill="#202B78"/>
    <path
      d="M14.2907 21.6831H12.7581L12.1826 18.5152H8.91041L8.36074 21.6831H6.82812L9.85455 6.2832H11.2061L14.2907 21.6831ZM11.9627 17.2739L10.941 11.3713C10.7599 10.3304 10.6758 9.27009 10.553 8.22921H10.4689C10.3266 9.27009 10.2232 10.3304 10.0615 11.3713L9.16261 17.2739H11.9627Z"
      fill="white"/>
    <path d="M18.1049 20.3772H21.4547V21.6831H16.6758V6.2832H18.1049V20.3772Z" fill="white"/>
    <path
      d="M23.8438 6.2832H25.3958C28.3381 6.2832 30.2587 6.65172 30.2587 13.9832C30.2587 20.0087 29.2758 21.6831 25.4992 21.6831H23.8438V6.2832ZM25.2729 20.3772H25.6803C28.4416 20.3772 28.7843 18.4376 28.7843 13.9832C28.7843 8.6947 28.2347 7.58916 25.5186 7.58916H25.2729V20.3772Z"
      fill="white"/>
    <path d="M34.6088 21.6831H33.1797V6.2832H34.6088V21.6831Z" fill="white"/>
    <path
      d="M47.7744 21.1542V17.9604C48.1624 18.2966 48.544 18.5487 48.9126 18.7168C49.2876 18.8849 49.6627 18.969 50.0442 18.969C50.5616 18.969 50.9754 18.8332 51.2729 18.5552C51.5704 18.2772 51.7191 17.9087 51.7191 17.4367C51.7191 16.8549 51.3117 16.2213 50.5034 15.536C50.277 15.3485 50.1089 15.1998 49.999 15.0899C49.0548 14.243 48.4082 13.4866 48.059 12.8142C47.7098 12.1418 47.5352 11.3789 47.5352 10.532C47.5352 9.20018 47.9102 8.12696 48.6604 7.31236C49.4105 6.49129 50.387 6.08398 51.5963 6.08398C52.0231 6.08398 52.4499 6.14864 52.8702 6.27147C53.2905 6.39431 53.7303 6.58827 54.1959 6.84687V9.56869C53.6527 9.31008 53.2323 9.12906 52.9349 9.03208C52.6374 8.93511 52.3723 8.88339 52.1395 8.88339C51.6933 8.88339 51.3311 9.01915 51.0531 9.29715C50.7685 9.57515 50.6327 9.9372 50.6327 10.3898C50.6327 10.7841 50.7362 11.1526 50.9496 11.4888C51.163 11.8315 51.6545 12.3358 52.424 13.0017C53.4587 13.8874 54.1247 14.6244 54.4157 15.2127C54.7132 15.8011 54.8619 16.5058 54.8619 17.3398C54.8619 18.7362 54.4675 19.8418 53.6721 20.6564C52.8831 21.471 51.8032 21.8718 50.4387 21.8718C49.9214 21.8718 49.4364 21.8136 48.9966 21.6908C48.5569 21.5809 48.1495 21.3999 47.7744 21.1542Z"
      fill="white"/>
    <path
      d="M57.8633 21.6909V6.29102H61.0578C62.7521 6.29102 64.0131 6.65953 64.8344 7.39009C65.6557 8.12065 66.0695 9.24558 66.0695 10.7584C66.0695 12.2001 65.6751 13.3186 64.8797 14.1203C64.0843 14.922 62.972 15.3163 61.5364 15.3163C61.3553 15.3163 61.213 15.3163 61.1225 15.3099C61.0255 15.3034 60.935 15.3034 60.8509 15.2969L60.838 21.6909H57.8633ZM60.838 12.9695C60.8703 12.9695 60.9285 12.976 60.9996 12.9824C61.0708 12.9889 61.129 12.9954 61.1613 12.9954C61.8144 12.9954 62.3124 12.8079 62.6551 12.4329C62.9979 12.0579 63.166 11.5148 63.166 10.8166C63.166 10.086 63.0043 9.54944 62.681 9.20032C62.3577 8.85121 61.8532 8.67665 61.1613 8.67665C61.129 8.67665 61.0708 8.67665 60.9996 8.68958C60.9285 8.69604 60.8703 8.70251 60.838 8.70251V12.9695Z"
      fill="white"/>
    <path
      d="M79.3188 14.21C79.3188 16.5569 78.8273 18.4253 77.8444 19.8024C76.8615 21.1859 75.5423 21.8777 73.8997 21.8777C72.199 21.8777 70.8733 21.1859 69.9227 19.7959C68.9721 18.4059 68.5 16.4728 68.5 13.9967C68.5 11.527 68.9785 9.59394 69.9421 8.19101C70.8992 6.78808 72.2248 6.08984 73.9062 6.08984C75.594 6.08984 76.9197 6.80747 77.8832 8.24273C78.8338 9.67799 79.3188 11.6692 79.3188 14.21ZM73.8932 18.949C74.6822 18.949 75.2707 18.5352 75.6587 17.7141C76.0467 16.8931 76.2471 15.6518 76.2471 14.0032C76.2471 12.3352 76.0531 11.0939 75.6587 10.2663C75.2707 9.44524 74.6822 9.03148 73.8932 9.03148C73.1043 9.03148 72.5158 9.43878 72.1343 10.2599C71.7463 11.0809 71.5523 12.3222 71.5523 13.9967C71.5523 15.6647 71.7463 16.906 72.1343 17.7206C72.5223 18.5417 73.1108 18.949 73.8932 18.949Z"
      fill="white"/>
    <path
      d="M82.5312 21.6909V6.29102H85.7258C87.4848 6.29102 88.7587 6.63367 89.5476 7.32544C90.3366 8.0172 90.7375 9.11628 90.7375 10.6291C90.7375 11.7282 90.537 12.6074 90.1296 13.2734C89.7222 13.9393 89.1144 14.4047 88.2996 14.6698L91.2549 21.6974H88.015L85.5059 15.3293V21.6974H82.5312V21.6909ZM85.5059 12.9695C85.5383 12.9695 85.5965 12.976 85.6805 12.9824C85.7646 12.9889 85.8163 12.9954 85.8551 12.9954C86.5212 12.9954 87.0256 12.8079 87.3619 12.4329C87.6982 12.0579 87.8663 11.5148 87.8663 10.7907C87.8663 10.0537 87.7111 9.51711 87.4007 9.17446C87.0903 8.83828 86.5924 8.67018 85.9133 8.67018C85.8099 8.67018 85.7258 8.67018 85.6741 8.67665C85.6159 8.68311 85.5641 8.68311 85.5189 8.68958L85.5059 12.9695Z"
      fill="white"/>
    <path d="M95.2133 21.6903V9.14153H92.8594V6.29688H100.658V9.14153H98.3044V21.6903H95.2133Z" fill="white"/>
    <path
      d="M103.021 21.1542V17.9604C103.409 18.2966 103.79 18.5487 104.159 18.7168C104.534 18.8849 104.909 18.969 105.29 18.969C105.808 18.969 106.222 18.8332 106.519 18.5552C106.816 18.2772 106.965 17.9087 106.965 17.4367C106.965 16.8549 106.558 16.2213 105.749 15.536C105.523 15.3485 105.355 15.1998 105.245 15.0899C104.301 14.243 103.654 13.4866 103.305 12.8142C102.956 12.1418 102.781 11.3789 102.781 10.532C102.781 9.20018 103.156 8.12696 103.906 7.31236C104.657 6.49129 105.633 6.08398 106.842 6.08398C107.269 6.08398 107.696 6.14864 108.116 6.27147C108.537 6.39431 108.976 6.58827 109.442 6.84687V9.56869C108.899 9.31008 108.478 9.12906 108.181 9.03208C107.883 8.93511 107.618 8.88339 107.386 8.88339C106.939 8.88339 106.577 9.01915 106.299 9.29715C106.015 9.57515 105.879 9.9372 105.879 10.3898C105.879 10.7841 105.982 11.1526 106.196 11.4888C106.409 11.8315 106.901 12.3358 107.67 13.0017C108.705 13.8874 109.371 14.6244 109.662 15.2127C109.959 15.8011 110.108 16.5058 110.108 17.3398C110.108 18.7362 109.714 19.8418 108.918 20.6564C108.129 21.471 107.049 21.8718 105.685 21.8718C105.167 21.8718 104.682 21.8136 104.243 21.6908C103.803 21.5809 103.396 21.3999 103.021 21.1542Z"
      fill="white"/>
  </g>
  <defs>
    <clipPath id="clip0_1310_18535">
      <rect width="116" height="28" fill="white"/>
    </clipPath>
  </defs>
</svg>
