<svg width="112" height="64" viewBox="0 0 112 64" fill="none" xmlns="http://www.w3.org/2000/svg">
              <path
                d="M0.0389922 42.5824L5.81512 30.16C5.86951 30.0484 6.00118 29.9568 6.12998 29.9568H6.31317C6.44197 29.9568 6.57078 30.0484 6.62802 30.16L12.4042 42.5824C12.5158 42.8229 12.3669 43.0633 12.0893 43.0633H10.0399C9.70786 43.0633 9.55902 42.9517 9.39301 42.6025L8.72895 41.1455H3.70847L3.04441 42.6225C2.95282 42.8429 2.74959 43.0662 2.38036 43.0662H0.350983C0.0733388 43.0662 -0.0726362 42.8257 0.0361314 42.5853L0.0389922 42.5824ZM7.6241 38.6324L6.22158 35.5869H6.2044L4.81904 38.6324H7.6241Z"
                fill="#0B102F"/>
              <path
                d="M13.9211 30.4922C13.9211 30.309 14.07 30.1401 14.2732 30.1401H16.4686C16.6518 30.1401 16.8207 30.3062 16.8207 30.4922V40.35H21.2143C21.4175 40.35 21.5664 40.516 21.5664 40.702V42.7143C21.5664 42.8974 21.4175 43.0663 21.2143 43.0663H14.2732C14.07 43.0663 13.9211 42.9003 13.9211 42.7143V30.4951V30.4922Z"
                fill="#0B102F"/>
              <path
                d="M23.3525 30.4922C23.3525 30.309 23.5014 30.1401 23.6846 30.1401H28.1898C31.7534 30.1401 34.6701 33.0368 34.6701 36.5832C34.6701 40.1296 31.7534 43.0635 28.1898 43.0635H23.6846C23.5014 43.0635 23.3525 42.8974 23.3525 42.7114V30.4922ZM28.0038 40.3299C30.0904 40.3299 31.6046 38.687 31.6046 36.5832C31.6046 34.4794 30.0904 32.8536 28.0038 32.8536H26.232V40.3299H28.0038Z"
                fill="#0B102F"/>
              <path
                d="M36.9199 30.4922C36.9199 30.309 37.0859 30.1401 37.272 30.1401H39.4874C39.6735 30.1401 39.8395 30.3062 39.8395 30.4922V42.7114C39.8395 42.8946 39.6735 43.0635 39.4874 43.0635H37.272C37.0888 43.0635 36.9199 42.8974 36.9199 42.7114V30.4922Z"
                fill="#0B102F"/>
              <path
                d="M51.1685 30.4922C51.1685 30.309 51.3173 30.1401 51.5005 30.1401H56.0058C59.5693 30.1401 62.486 33.0368 62.486 36.5832C62.486 40.1296 59.5693 43.0635 56.0058 43.0635H51.5005C51.3173 43.0635 51.1685 42.8974 51.1685 42.7114V30.4922ZM55.8197 40.3299C57.9063 40.3299 59.4176 38.687 59.4176 36.5832C59.4176 34.4794 57.9035 32.8536 55.8197 32.8536H54.0479V40.3299H55.8197Z"
                fill="#0B102F"/>
              <path
                d="M64.7358 30.4922C64.7358 30.309 64.8847 30.1401 65.0879 30.1401H72.7303C72.9335 30.1401 73.0823 30.3062 73.0823 30.4922V32.5044C73.0823 32.6876 72.9335 32.8565 72.7303 32.8565H67.6182V35.1463H71.8258C72.009 35.1463 72.1778 35.3123 72.1778 35.4984V37.5106C72.1778 37.7138 72.0118 37.8626 71.8258 37.8626H67.6182V40.3557H72.7303C72.9335 40.3557 73.0823 40.5217 73.0823 40.7078V42.72C73.0823 42.9032 72.9335 43.072 72.7303 43.072H65.0879C64.8847 43.072 64.7358 42.906 64.7358 42.72V30.5008V30.4922Z"
                fill="#0B102F"/>
              <path
                d="M73.8923 42.5827L79.6684 30.1603C79.7228 30.0486 79.8516 29.957 79.9832 29.957H80.1664C80.2952 29.957 80.424 30.0486 80.4813 30.1603L86.2574 42.5827C86.369 42.8231 86.2202 43.0635 85.9426 43.0635H83.8932C83.5611 43.0635 83.4123 42.9519 83.2463 42.6027L82.5822 41.1458H77.5617L76.8977 42.6227C76.8061 42.8431 76.6029 43.0664 76.2336 43.0664H74.2043C73.9266 43.0664 73.7806 42.826 73.8894 42.5855L73.8923 42.5827ZM81.4774 38.6327L80.0748 35.5872H80.0577L78.6723 38.6327H81.4774Z"
                fill="#0B102F"/>
              <path
                d="M87.7744 30.4922C87.7744 30.309 87.9232 30.1401 88.1265 30.1401H90.3219C90.505 30.1401 90.6739 30.3062 90.6739 30.4922V40.35H95.0676C95.2708 40.35 95.4196 40.516 95.4196 40.702V42.7143C95.4196 42.8974 95.2708 43.0663 95.0676 43.0663H88.1265C87.9232 43.0663 87.7744 42.9003 87.7744 42.7143V30.4951V30.4922Z"
                fill="#0B102F"/>
              <path
                d="M96.4673 41.309L97.3346 39.7777C97.4834 39.5372 97.8326 39.5744 97.9614 39.666C98.0359 39.7033 99.364 40.6822 100.583 40.6822C101.322 40.6822 101.857 40.2213 101.857 39.5744C101.857 38.7988 101.21 38.2091 99.9565 37.7111C98.3679 37.0842 96.3757 35.8477 96.3757 33.6323C96.3757 31.8061 97.7983 29.96 100.641 29.96C102.561 29.96 104.038 30.9389 104.591 31.3453C104.811 31.4741 104.774 31.8061 104.702 31.935L103.76 33.3575C103.632 33.5607 103.3 33.7268 103.134 33.5979C102.968 33.5064 101.619 32.4902 100.495 32.4902C99.8305 32.4902 99.3325 32.9339 99.3325 33.4319C99.3325 34.116 99.8849 34.6312 101.345 35.2237C102.784 35.7962 105.074 36.9211 105.074 39.4313C105.074 41.3319 103.431 43.2525 100.718 43.2525C98.3192 43.2525 96.9883 42.2564 96.5646 41.8299C96.3814 41.6439 96.3242 41.5723 96.473 41.3119L96.4673 41.309Z"
                fill="#0B102F"/>
              <path
                d="M109.794 15.1158H89.5634C89.4976 12.1619 88.7706 9.20231 87.3223 6.61765C86.0199 4.29346 84.0478 2.1868 81.6062 1.05047C80.3067 0.44652 78.9557 0.0830059 77.5188 0.0114483C76.228 -0.0515225 74.8884 0.145977 73.6748 0.586772C72.3238 1.07909 71.1273 1.7918 70.0253 2.71347C68.9777 3.58647 68.0876 4.65697 67.3434 5.79903C65.6775 8.35221 64.8188 11.3863 64.6356 14.4117C64.6213 14.6464 64.6127 14.8811 64.607 15.1158H48.1144C47.2814 15.1158 46.4485 15.1073 45.6127 15.1158C45.5755 15.1158 45.5412 15.1158 45.504 15.1158C44.7025 15.1158 43.9354 15.82 43.9726 16.6472V60.5893C43.9726 61.1847 43.9612 61.7829 43.9726 62.3811C43.9726 62.4069 43.9726 62.4326 43.9726 62.4584C43.9726 63.5861 45.2864 64.4133 46.2768 63.7808C47.9026 62.7446 49.5284 61.7113 51.1541 60.6752C53.7474 59.0236 56.3378 57.3749 58.931 55.7234C59.4176 55.4142 59.9042 55.1023 60.3908 54.7931H100.286C100.661 54.7931 101.036 54.7931 101.408 54.7931C104.007 54.7817 106.537 53.7598 108.392 51.9308C110.261 50.0875 111.311 47.5315 111.323 44.9124C111.323 44.3972 111.323 43.8792 111.323 43.3639V16.6472C111.323 15.82 110.621 15.1158 109.791 15.1158H109.794ZM67.8013 13.3212C67.9988 11.9988 68.3452 10.7022 68.8489 9.46278C69.2926 8.45239 69.8421 7.49352 70.5033 6.61193C71.0558 5.92497 71.674 5.2924 72.361 4.73998C72.9478 4.30777 73.5746 3.93281 74.2386 3.63513C74.8483 3.3947 75.4837 3.22009 76.1306 3.11419C76.7632 3.04549 77.4015 3.04549 78.0341 3.11419C78.6809 3.21723 79.3164 3.3947 79.9261 3.63513C80.5901 3.93281 81.2198 4.30777 81.8037 4.73998C82.4907 5.2924 83.1118 5.92211 83.6614 6.61193C84.3225 7.49352 84.8721 8.45525 85.3158 9.46278C85.8195 10.7022 86.1659 11.9988 86.3634 13.3212C86.4349 13.9165 86.4779 14.5148 86.4922 15.1158H67.6639C67.6782 14.5148 67.7212 13.9165 67.7927 13.3212H67.8013ZM108.263 18.6164V42.1217C108.263 43.0233 108.263 43.9221 108.263 44.8237C108.263 44.9754 108.263 45.1271 108.254 45.2788C108.246 45.4649 108.231 45.6538 108.211 45.8398C108.194 45.94 108.177 46.0402 108.157 46.1404C108.083 46.5211 107.98 46.896 107.851 47.2624C107.822 47.3397 107.793 47.417 107.765 47.4942C107.679 47.6517 107.616 47.8263 107.533 47.9866C107.358 48.3215 107.158 48.6478 106.94 48.9569C106.918 48.9912 106.892 49.0227 106.869 49.0542C106.843 49.0857 106.82 49.1172 106.797 49.1458C106.68 49.286 106.56 49.4206 106.437 49.5551C106.182 49.8242 105.907 50.0703 105.621 50.3079C105.549 50.3594 105.481 50.4109 105.409 50.4596C105.257 50.5626 105.106 50.6628 104.948 50.7544C104.791 50.8489 104.631 50.9376 104.467 51.0206C104.379 51.0664 104.29 51.1093 104.201 51.1523C104.184 51.1609 104.153 51.1752 104.115 51.1923C104.067 51.2124 104.004 51.2381 103.978 51.2467C103.884 51.2811 103.789 51.3154 103.695 51.3469C103.503 51.4099 103.311 51.4671 103.116 51.5186C102.948 51.5616 102.779 51.5988 102.607 51.6331C102.518 51.6503 102.429 51.6646 102.341 51.6789C102.332 51.6789 102.326 51.6789 102.318 51.6789C101.94 51.719 101.562 51.7247 101.184 51.7247H60.6513C60.4395 51.7247 60.2248 51.719 60.013 51.7247C59.6065 51.7362 59.2802 51.8678 58.9539 52.0768C57.7374 52.8525 56.521 53.6253 55.3045 54.401C53.4411 55.586 51.5778 56.7738 49.7144 57.9588C48.8214 58.5256 47.9312 59.0952 47.0382 59.6619V18.5163C47.0382 18.4046 47.0382 18.293 47.0382 18.1814H107.184C107.542 18.1814 107.902 18.1814 108.263 18.1871V18.6222V18.6164Z"
                fill="#FFA300"/>
              <path
                d="M66.8815 23.8958C67.86 23.6649 68.4661 22.6844 68.2351 21.7059C68.0042 20.7274 67.0237 20.1214 66.0452 20.3523C65.0667 20.5833 64.4607 21.5637 64.6916 22.5423C64.9226 23.5208 65.903 24.1268 66.8815 23.8958Z"
                fill="#FFA300"/>
              <path
                d="M89.0036 23.4032C89.7145 22.6923 89.7145 21.5397 89.0035 20.8287C88.2926 20.1178 87.14 20.1178 86.4291 20.8287C85.7182 21.5397 85.7182 22.6923 86.4291 23.4032C87.14 24.1141 88.2926 24.1141 89.0036 23.4032Z"
                fill="#FFA300"/>
            </svg>
