<svg width="92" height="64" viewBox="0 0 92 64" fill="none" xmlns="http://www.w3.org/2000/svg">
  <rect x="0.5" y="0.5" width="91" height="63" rx="5.5" fill="white"/>
  <rect x="0.5" y="0.5" width="91" height="63" rx="5.5" stroke="#0B102F"/>
  <path
    d="M45.4159 44.8793C42.2857 47.5407 38.2252 49.1474 33.7883 49.1474C23.888 49.1474 15.8623 41.1482 15.8623 31.2807C15.8623 21.4132 23.888 13.4141 33.7883 13.4141C38.2252 13.4141 42.2857 15.0207 45.4159 17.6822C48.5462 15.0207 52.6066 13.4141 57.0436 13.4141C66.9438 13.4141 74.9695 21.4132 74.9695 31.2807C74.9695 41.1482 66.9438 49.1474 57.0436 49.1474C52.6066 49.1474 48.5462 47.5407 45.4159 44.8793Z"
    fill="#ED0006"/>
  <path
    d="M45.416 44.8793C49.2703 41.6022 51.7143 36.7259 51.7143 31.2807C51.7143 25.8355 49.2703 20.9592 45.416 17.6822C48.5463 15.0207 52.6067 13.4141 57.0437 13.4141C66.9439 13.4141 74.9696 21.4132 74.9696 31.2807C74.9696 41.1482 66.9439 49.1474 57.0437 49.1474C52.6067 49.1474 48.5463 47.5407 45.416 44.8793Z"
    fill="#F9A000"/>
  <path
    d="M45.4164 44.8786C49.2707 41.6016 51.7146 36.7253 51.7146 31.2801C51.7146 25.835 49.2707 20.9587 45.4164 17.6816C41.5621 20.9587 39.1182 25.835 39.1182 31.2801C39.1182 36.7253 41.5621 41.6016 45.4164 44.8786Z"
    fill="#FF5E00"/>
</svg>
