<svg width="137" height="24" viewBox="0 0 137 24" fill="none" xmlns="http://www.w3.org/2000/svg">
  <path d="M58.2266 23.9472H134.17C135.188 23.9472 136.014 23.1212 136.014 22.1028V1.84439C136.014 0.825959 135.188 0 134.17 0H58.2266V23.9472Z" fill="#D01C1F"/>
  <path d="M1.84439 23.9999H58.3871V0.0507812H1.84439C0.825959 0.0507812 0 0.87674 0 1.89517V22.1536C0 23.1739 0.825959 23.9999 1.84439 23.9999Z" fill="#203C7F"/>
  <path d="M52.106 5.33594H48.0977V18.5812H52.106V5.33594Z" fill="white"/>
  <path d="M23.7968 18.5812H31.991L31.2061 15.6156H24.7368L24.733 5.33594H20.7266V15.5109C20.7266 17.2077 22.1019 18.5812 23.7968 18.5812Z" fill="white"/>
  <path d="M40.3458 5.33594H32.957V18.5793H40.3477C43.9954 18.57 46.9404 15.6044 46.9311 11.9586C46.9404 8.31088 43.9935 5.34715 40.3458 5.33594ZM39.5236 15.7053H36.9635V8.21184H39.3479C41.7006 8.21184 42.9209 9.25831 42.9209 11.8707C42.9227 14.571 41.9641 15.7053 39.5236 15.7053Z" fill="white"/>
  <path d="M14.7044 5.66856L14.5512 5.33594H12.9123H11.2735L11.1184 5.66856L5.09375 18.5812H9.10208L9.99157 16.6676H12.9105H15.8293L16.7188 18.5812H20.7272L14.7044 5.66856ZM12.9123 13.7039H11.3763L12.9123 10.415L14.4465 13.7039H12.9123Z" fill="white"/>
  <path d="M63.5875 16.7679L64.4751 15.2001C64.6265 14.9553 64.9853 14.9927 65.1179 15.0861C65.1927 15.1235 66.5531 16.1251 67.7995 16.1251C68.5545 16.1251 69.102 15.6523 69.102 14.9908C69.102 14.1985 68.4405 13.593 67.1567 13.0829C65.5328 12.44 63.4922 11.1749 63.4922 8.90823C63.4922 7.03768 64.946 5.14844 67.8556 5.14844C69.8196 5.14844 71.3313 6.15005 71.8975 6.5649C72.1236 6.69758 72.0863 7.03768 72.0115 7.16849L71.0491 8.62232C70.9165 8.82975 70.5764 8.9998 70.4063 8.86712C70.2363 8.77369 68.8572 7.73283 67.7061 7.73283C67.0259 7.73283 66.5157 8.18692 66.5157 8.69707C66.5157 9.39596 67.0819 9.9248 68.575 10.5303C70.0475 11.1152 72.3909 12.2681 72.3909 14.8376C72.3909 16.7829 70.709 18.7487 67.9322 18.7487C65.4767 18.7487 64.1163 17.7284 63.6828 17.2949C63.4941 17.108 63.4361 17.0314 63.5875 16.7679Z" fill="white"/>
  <path d="M74.6992 5.70254C74.6992 5.5138 74.8506 5.34375 75.058 5.34375H79.6101C81.9329 5.34375 83.8408 7.23299 83.8408 9.51839C83.8408 11.8599 81.9329 13.7678 79.6288 13.7678H77.6461V18.2059C77.6461 18.3946 77.4761 18.5647 77.2873 18.5647H75.058C74.8506 18.5647 74.6992 18.3946 74.6992 18.2059V5.70254ZM79.4419 11.0115C80.2548 11.0115 80.935 10.3686 80.935 9.51839C80.935 8.7242 80.2548 8.12062 79.4419 8.12062H77.648V11.0115H79.4419Z" fill="white"/>
  <path d="M91.633 5.14844C95.4115 5.14844 98.4332 8.18879 98.4332 11.9673C98.4332 15.7458 95.4115 18.7487 91.633 18.7487C87.8545 18.7487 84.8516 15.7458 84.8516 11.9673C84.8516 8.18879 87.8545 5.14844 91.633 5.14844ZM91.633 15.7271C93.711 15.7271 95.4115 14.0266 95.4115 11.9673C95.4115 9.88929 93.711 8.1701 91.633 8.1701C89.5737 8.1701 87.8732 9.88929 87.8732 11.9673C87.8751 14.0266 89.5737 15.7271 91.633 15.7271Z" fill="white"/>
  <path d="M100.727 5.70254C100.727 5.5138 100.878 5.34375 101.085 5.34375H106.733C108.999 5.34375 110.851 7.17693 110.851 9.42309C110.851 11.161 109.698 12.5587 108.056 13.2203L110.644 18.0172C110.776 18.262 110.644 18.5647 110.322 18.5647H107.809C107.658 18.5647 107.545 18.4694 107.506 18.3946L104.995 13.3884H103.692V18.2059C103.692 18.3946 103.522 18.5647 103.333 18.5647H101.085C100.878 18.5647 100.727 18.3946 100.727 18.2059V5.70254ZM106.488 10.9928C107.261 10.9928 107.923 10.2752 107.923 9.48102C107.923 8.6887 107.261 8.04587 106.488 8.04587H103.692V10.9928H106.488Z" fill="white"/>
  <path d="M115.082 8.12062H112.382C112.175 8.12062 112.023 7.95057 112.023 7.76183V5.70254C112.023 5.5138 112.175 5.34375 112.382 5.34375H120.769C120.976 5.34375 121.128 5.5138 121.128 5.70254V7.76183C121.128 7.95057 120.976 8.12062 120.769 8.12062H118.067V18.2078C118.067 18.3965 117.897 18.5666 117.708 18.5666H115.441C115.253 18.5666 115.082 18.3965 115.082 18.2078V8.12062Z" fill="white"/>
  <path d="M122.263 16.7679L123.151 15.2001C123.302 14.9553 123.661 14.9927 123.794 15.0861C123.868 15.1235 125.229 16.1251 126.475 16.1251C127.23 16.1251 127.778 15.6523 127.778 14.9908C127.778 14.1985 127.116 13.593 125.832 13.0829C124.209 12.44 122.168 11.1749 122.168 8.90823C122.168 7.03768 123.622 5.14844 126.531 5.14844C128.495 5.14844 130.007 6.15005 130.573 6.5649C130.799 6.69758 130.762 7.03768 130.687 7.16849L129.725 8.62232C129.592 8.82975 129.252 8.9998 129.082 8.86712C128.912 8.77369 127.533 7.73283 126.382 7.73283C125.702 7.73283 125.191 8.18692 125.191 8.69707C125.191 9.39596 125.758 9.9248 127.251 10.5303C128.723 11.1152 131.067 12.2681 131.067 14.8376C131.067 16.7829 129.385 18.7487 126.608 18.7487C124.153 18.7487 122.792 17.7284 122.359 17.2949C122.17 17.108 122.112 17.0314 122.263 16.7679Z" fill="white"/>
</svg>
