<svg width="80" height="56" viewBox="0 0 80 56" fill="none" xmlns="http://www.w3.org/2000/svg">
<rect width="80" height="56" rx="6" fill="white"/>
<rect x="0.5" y="0.5" width="79" height="55" rx="5.5" stroke="#0B102F" strokeOpacity="0.1"/>
<path fill-rule="evenodd" clip-rule="evenodd" d="M22.0793 19.47C21.4003 20.2911 20.314 20.9387 19.2277 20.8462C19.0919 19.736 19.6237 18.5564 20.2461 17.8278C20.9251 16.9836 22.1132 16.3822 23.0751 16.3359C23.1883 17.4924 22.7469 18.6257 22.0793 19.47ZM23.0637 21.0659C22.1067 21.0096 21.2334 21.36 20.5281 21.6431C20.0741 21.8253 19.6898 21.9795 19.3973 21.9795C19.0692 21.9795 18.6689 21.817 18.2195 21.6346C17.6307 21.3955 16.9575 21.1222 16.2515 21.1353C14.6333 21.1584 13.1283 22.0952 12.3023 23.587C10.6049 26.5707 11.8609 30.9884 13.5017 33.417C14.3052 34.6197 15.267 35.9381 16.5344 35.8918C17.092 35.8703 17.4931 35.6964 17.9082 35.5164C18.386 35.3092 18.8825 35.0939 19.6576 35.0939C20.4059 35.0939 20.8806 35.3035 21.3363 35.5048C21.7696 35.6962 22.1857 35.88 22.8034 35.8687C24.1161 35.8456 24.9421 34.666 25.7456 33.4632C26.6126 32.1724 26.9936 30.9126 27.0514 30.7214L27.0582 30.6993C27.0568 30.6979 27.0461 30.6929 27.0273 30.684L27.0272 30.684C26.7374 30.5484 24.5221 29.5119 24.5008 26.7326C24.4795 24.3997 26.2579 23.2178 26.5379 23.0317L26.538 23.0317C26.555 23.0204 26.5664 23.0127 26.5716 23.0088C25.44 21.2972 23.6748 21.1122 23.0637 21.0659ZM32.1505 35.7415V17.7121H38.7703C42.1877 17.7121 44.5754 20.1176 44.5754 23.6333C44.5754 27.1489 42.1424 29.5775 38.6798 29.5775H34.8889V35.7415H32.1505ZM34.8887 20.0713H38.0458C40.4222 20.0713 41.7801 21.3666 41.7801 23.6448C41.7801 25.9231 40.4222 27.2299 38.0345 27.2299H34.8887V20.0713ZM53.6169 33.5789C52.8927 34.9898 51.2972 35.8803 49.5771 35.8803C47.031 35.8803 45.2544 34.3306 45.2544 31.9945C45.2544 29.6816 46.9745 28.3517 50.1542 28.1551L53.5717 27.9469V26.9523C53.5717 25.4836 52.6324 24.6857 50.9577 24.6857C49.5771 24.6857 48.57 25.4142 48.3663 26.5244H45.8995C45.9787 24.1884 48.1287 22.4884 51.0369 22.4884C54.1714 22.4884 56.2083 24.1652 56.2083 26.7673V35.7415H53.6735V33.5789H53.6169ZM50.3125 33.7408C48.8527 33.7408 47.9248 33.0238 47.9248 31.9251C47.9248 30.7918 48.8188 30.1326 50.5275 30.0285L53.5715 29.8319V30.8496C53.5715 32.5381 52.1683 33.7408 50.3125 33.7408ZM64.6159 36.447C63.5182 39.6041 62.2622 40.645 59.5916 40.645C59.3879 40.645 58.709 40.6218 58.5505 40.5756V38.413C58.7203 38.4361 59.139 38.4592 59.354 38.4592C60.5648 38.4592 61.2437 37.9388 61.6624 36.5857L61.9114 35.7878L57.2718 22.6618H60.1348L63.3598 33.3129H63.4164L66.6414 22.6618H69.4252L64.6159 36.447Z" fill="#202B77"/>
</svg>
