<svg width="209" height="120" viewBox="0 0 209 120" fill="none" xmlns="http://www.w3.org/2000/svg">
  <path
    d="M0.0731103 79.841L10.9034 56.549C11.0053 56.3397 11.2522 56.168 11.4937 56.168H11.8372C12.0787 56.168 12.3202 56.3397 12.4275 56.549L23.2578 79.841C23.4671 80.2918 23.188 80.7427 22.6674 80.7427H18.8248C18.2022 80.7427 17.9232 80.5334 17.6119 79.8786L16.3668 77.1469H6.95338L5.70828 79.9162C5.53654 80.3294 5.15549 80.748 4.46317 80.748H0.658092C0.13751 80.748 -0.136193 80.2972 0.0677465 79.8464L0.0731103 79.841ZM14.2952 72.4348L11.6655 66.7245H11.6332L9.03571 72.4348H14.2952Z"
    fill="#FAFAFA"/>
  <path
    d="M26.1016 57.1718C26.1016 56.8284 26.3806 56.5117 26.7617 56.5117H30.878C31.2215 56.5117 31.5382 56.823 31.5382 57.1718V75.6552H39.7762C40.1573 75.6552 40.4363 75.9665 40.4363 76.3153V80.0882C40.4363 80.4317 40.1573 80.7483 39.7762 80.7483H26.7617C26.3806 80.7483 26.1016 80.437 26.1016 80.0882V57.1772V57.1718Z"
    fill="#FAFAFA"/>
  <path
    d="M43.7852 57.1718C43.7852 56.8284 44.0642 56.5117 44.4077 56.5117H52.8551C59.5368 56.5117 65.0056 61.9429 65.0056 68.5924C65.0056 75.2419 59.5368 80.7429 52.8551 80.7429H44.4077C44.0642 80.7429 43.7852 80.4317 43.7852 80.0828V57.1718ZM52.5062 75.6176C56.4187 75.6176 59.2577 72.5371 59.2577 68.5924C59.2577 64.6478 56.4187 61.5995 52.5062 61.5995H49.1842V75.6176H52.5062Z"
    fill="#FAFAFA"/>
  <path
    d="M69.2266 57.1718C69.2266 56.8284 69.5378 56.5117 69.8867 56.5117H74.0406C74.3894 56.5117 74.7007 56.823 74.7007 57.1718V80.0828C74.7007 80.4263 74.3894 80.7429 74.0406 80.7429H69.8867C69.5432 80.7429 69.2266 80.4317 69.2266 80.0828V57.1718Z"
    fill="#FAFAFA"/>
  <path
    d="M95.9414 57.1738C95.9414 56.8303 96.2205 56.5137 96.564 56.5137H105.011C111.693 56.5137 117.162 61.9449 117.162 68.5944C117.162 75.2439 111.693 80.7449 105.011 80.7449H96.564C96.2205 80.7449 95.9414 80.4336 95.9414 80.0848V57.1738ZM104.662 75.6196C108.575 75.6196 111.409 72.539 111.409 68.5944C111.409 64.6498 108.57 61.6014 104.662 61.6014H101.34V75.6196H104.662Z"
    fill="#FAFAFA"/>
  <path
    d="M121.379 57.1738C121.379 56.8303 121.658 56.5137 122.039 56.5137H136.368C136.749 56.5137 137.029 56.825 137.029 57.1738V60.9467C137.029 61.2902 136.749 61.6068 136.368 61.6068H126.783V65.9003H134.673C135.016 65.9003 135.333 66.2115 135.333 66.5604V70.3332C135.333 70.7143 135.021 70.9934 134.673 70.9934H126.783V75.6679H136.368C136.749 75.6679 137.029 75.9792 137.029 76.328V80.1009C137.029 80.4443 136.749 80.761 136.368 80.761H122.039C121.658 80.761 121.379 80.4497 121.379 80.1009V57.1899V57.1738Z"
    fill="#FAFAFA"/>
  <path
    d="M138.55 79.843L149.38 56.551C149.482 56.3417 149.723 56.1699 149.97 56.1699H150.314C150.555 56.1699 150.797 56.3417 150.904 56.551L161.734 79.843C161.944 80.2938 161.665 80.7446 161.144 80.7446H157.301C156.679 80.7446 156.4 80.5353 156.088 79.8806L154.843 77.1488H145.43L144.185 79.9181C144.013 80.3314 143.632 80.75 142.94 80.75H139.135C138.614 80.75 138.34 80.2992 138.544 79.8484L138.55 79.843ZM152.772 72.4368L150.142 66.7265H150.11L147.512 72.4368H152.772Z"
    fill="#FAFAFA"/>
  <path
    d="M164.578 57.1738C164.578 56.8303 164.857 56.5137 165.238 56.5137H169.355C169.698 56.5137 170.015 56.825 170.015 57.1738V75.6571H178.253C178.634 75.6571 178.913 75.9684 178.913 76.3173V80.0901C178.913 80.4336 178.634 80.7503 178.253 80.7503H165.238C164.857 80.7503 164.578 80.439 164.578 80.0901V57.1792V57.1738Z"
    fill="#FAFAFA"/>
  <path
    d="M180.875 77.4552L182.501 74.584C182.78 74.1332 183.435 74.2029 183.676 74.3747C183.816 74.4445 186.306 76.2799 188.592 76.2799C189.977 76.2799 190.981 75.4158 190.981 74.2029C190.981 72.7485 189.768 71.643 187.417 70.7091C184.438 69.5338 180.703 67.2153 180.703 63.0614C180.703 59.6374 183.37 56.1758 188.7 56.1758C192.301 56.1758 195.07 58.0112 196.106 58.7733C196.519 59.0148 196.449 59.6374 196.315 59.8789L194.55 62.5462C194.308 62.9272 193.685 63.2385 193.374 62.997C193.063 62.8253 190.535 60.9201 188.426 60.9201C187.181 60.9201 186.247 61.7519 186.247 62.6857C186.247 63.9684 187.283 64.9344 190.02 66.0454C192.719 67.1187 197.013 69.2279 197.013 73.9346C197.013 77.4982 193.932 81.0993 188.845 81.0993C184.347 81.0993 181.852 79.2317 181.057 78.432C180.714 78.0832 180.607 77.949 180.886 77.4606L180.875 77.4552Z"
    fill="#FAFAFA"/>
  <path
    d="M205.863 28.3422H167.93C167.806 22.8036 166.443 17.2543 163.728 12.4081C161.286 8.05024 157.588 4.10025 153.01 1.96963C150.574 0.837225 148.04 0.155636 145.346 0.0214655C142.926 -0.0966046 140.414 0.273707 138.139 1.1002C135.605 2.02329 133.362 3.35963 131.296 5.08775C129.332 6.72463 127.663 8.73182 126.267 10.8732C123.144 15.6604 121.534 21.3492 121.19 27.022C121.163 27.462 121.147 27.9021 121.136 28.3422H90.2128C88.6511 28.3422 87.0894 28.3261 85.5222 28.3422C85.4525 28.3422 85.3881 28.3422 85.3183 28.3422C83.8156 28.3422 82.3773 29.6624 82.447 31.2134V113.605C82.447 114.721 82.4256 115.843 82.447 116.965C82.447 117.013 82.447 117.061 82.447 117.109C82.447 119.224 84.9104 120.775 86.7673 119.589C89.8157 117.646 92.864 115.709 95.9124 113.766C100.775 110.669 105.632 107.578 110.494 104.481C111.406 103.902 112.319 103.317 113.231 102.737H188.034C188.737 102.737 189.44 102.737 190.138 102.737C195.011 102.716 199.755 100.8 203.233 97.3703C206.737 93.9141 208.707 89.1215 208.728 84.2108C208.728 83.2448 208.728 82.2734 208.728 81.3074V31.2134C208.728 29.6624 207.414 28.3422 205.857 28.3422H205.863ZM127.126 24.9772C127.496 22.4977 128.146 20.0666 129.09 17.7427C129.922 15.8482 130.952 14.0503 132.192 12.3974C133.228 11.1093 134.387 9.92326 135.675 8.88746C136.775 8.07707 137.951 7.37402 139.196 6.81587C140.339 6.36505 141.53 6.03768 142.743 5.83911C143.929 5.7103 145.126 5.7103 146.312 5.83911C147.525 6.03231 148.717 6.36505 149.86 6.81587C151.105 7.37402 152.286 8.07707 153.38 8.88746C154.668 9.92326 155.833 11.104 156.863 12.3974C158.103 14.0503 159.134 15.8536 159.965 17.7427C160.91 20.0666 161.559 22.4977 161.93 24.9772C162.064 26.0935 162.144 27.2152 162.171 28.3422H126.868C126.895 27.2152 126.976 26.0935 127.11 24.9772H127.126ZM202.991 34.9058V78.9782C202.991 80.6687 202.991 82.3539 202.991 84.0445C202.991 84.3289 202.991 84.6133 202.975 84.8978C202.959 85.2466 202.932 85.6008 202.895 85.9497C202.862 86.1375 202.83 86.3254 202.793 86.5132C202.653 87.227 202.46 87.93 202.218 88.617C202.165 88.7619 202.111 88.9068 202.057 89.0517C201.896 89.3469 201.778 89.6743 201.623 89.9748C201.295 90.6027 200.92 91.2145 200.512 91.7942C200.469 91.8586 200.421 91.9176 200.378 91.9766C200.329 92.0357 200.286 92.0947 200.243 92.1484C200.023 92.4113 199.798 92.6636 199.567 92.9158C199.09 93.4203 198.574 93.8819 198.038 94.3273C197.904 94.4239 197.775 94.5205 197.641 94.6117C197.356 94.8049 197.072 94.9928 196.777 95.1645C196.481 95.3416 196.181 95.508 195.875 95.6636C195.709 95.7495 195.542 95.83 195.376 95.9105C195.344 95.9266 195.285 95.9534 195.215 95.9856C195.124 96.0232 195.005 96.0715 194.957 96.0876C194.78 96.152 194.603 96.2164 194.426 96.2755C194.066 96.3935 193.707 96.5009 193.342 96.5975C193.025 96.678 192.708 96.7477 192.386 96.8121C192.22 96.8443 192.054 96.8712 191.887 96.898C191.871 96.898 191.861 96.898 191.844 96.898C191.136 96.9731 190.428 96.9839 189.719 96.9839H113.72C113.322 96.9839 112.92 96.9731 112.523 96.9839C111.761 97.0053 111.149 97.2522 110.537 97.644C108.256 99.0984 105.975 100.547 103.694 102.002C100.2 104.224 96.7067 106.451 93.2129 108.673C91.5384 109.735 89.8694 110.803 88.1949 111.866V34.718C88.1949 34.5087 88.1949 34.2994 88.1949 34.0901H200.968C201.639 34.0901 202.315 34.0901 202.991 34.1008V34.9166V34.9058Z"
    fill="#FFA300"/>
  <path
    d="M125.402 44.8053C127.237 44.3723 128.373 42.5339 127.94 40.6992C127.507 38.8645 125.668 37.7282 123.834 38.1612C121.999 38.5943 120.863 40.4326 121.296 42.2673C121.729 44.102 123.567 45.2383 125.402 44.8053Z"
    fill="#FFA300"/>
  <path
    d="M166.881 43.8804C168.214 42.5474 168.214 40.3862 166.881 39.0532C165.548 37.7203 163.387 37.7203 162.054 39.0532C160.721 40.3862 160.721 42.5474 162.054 43.8804C163.387 45.2133 165.548 45.2133 166.881 43.8804Z"
    fill="#FFA300"/>
</svg>
