<svg width="24" height="24" viewBox="0 0 24 24" fill="none" xmlns="http://www.w3.org/2000/svg">
<path d="M20.2336 8.14062C19.4833 8.14062 18.873 8.75087 18.873 9.50116V15.1701C18.873 15.9204 19.4833 16.5306 20.2336 16.5306C20.9839 16.5306 21.5941 15.9204 21.5941 15.1701V9.50116C21.5941 8.75087 20.9832 8.14062 20.2336 8.14062Z" fill="white"/>
<path d="M4.36054 8.14062C3.61024 8.14062 3 8.75087 3 9.50116V15.1701C3 15.9204 3.61024 16.5306 4.36054 16.5306C5.11083 16.5306 5.72107 15.9204 5.72107 15.1701V9.50116C5.72107 8.75087 5.11016 8.14062 4.36054 8.14062Z" fill="white"/>
<path d="M15.6893 3.2563C15.6212 3.21428 15.5525 3.17293 15.4825 3.13359C15.4132 3.09357 15.3431 3.05556 15.2718 3.01887L15.5032 2.60071L16.2315 1.28686C16.2568 1.24151 16.2628 1.18949 16.2488 1.14013C16.2341 1.09012 16.2015 1.04943 16.1561 1.02409C16.1268 1.00742 16.0948 1.00008 16.0627 1.00008C15.9947 1.00008 15.9287 1.03609 15.8933 1.09945L15.1551 2.43064L14.923 2.85014C14.8496 2.81746 14.7749 2.78612 14.7002 2.75677C14.6255 2.72676 14.5495 2.69808 14.4728 2.6714C13.7972 2.43131 13.0636 2.29992 12.2966 2.29992C11.5296 2.29992 10.7953 2.43131 10.1197 2.6714C10.043 2.69808 9.96701 2.72676 9.89231 2.75677C9.81695 2.78678 9.74292 2.81813 9.66956 2.85014L9.43747 2.43064L8.69918 1.09945C8.64783 1.00608 8.52978 0.972736 8.43641 1.02409C8.34304 1.07611 8.30902 1.19349 8.36105 1.28686L9.08933 2.60071L9.32076 3.01887C9.2494 3.05556 9.17937 3.09357 9.11001 3.13359C9.03998 3.17293 8.97129 3.21428 8.90326 3.2563C7.69345 4.01126 6.79376 5.15838 6.41961 6.49891C6.2949 6.94575 6.22821 7.41327 6.22754 7.89546H18.3657C18.365 7.41327 18.2983 6.94575 18.1736 6.49891C17.7988 5.15838 16.8997 4.01126 15.6893 3.2563ZM9.49549 4.66085C9.57152 4.66085 9.64355 4.67753 9.70824 4.70887C9.88164 4.7889 10.0024 4.96431 10.0024 5.16772C10.0024 5.18906 10.001 5.2104 9.99836 5.23108C9.96701 5.48051 9.75359 5.67459 9.49549 5.67459C9.21605 5.67459 8.98863 5.44716 8.98863 5.16772C8.98863 4.88828 9.21605 4.66085 9.49549 4.66085ZM15.0977 4.66085C15.3771 4.66085 15.6046 4.88828 15.6046 5.16772C15.6046 5.44716 15.3771 5.67459 15.0977 5.67459C14.8396 5.67459 14.6255 5.48051 14.5948 5.23041C14.5922 5.20974 14.5908 5.18906 14.5908 5.16772C14.5908 4.96497 14.7109 4.78957 14.8836 4.70887C14.9483 4.67819 15.021 4.66085 15.0977 4.66085Z" fill="white"/>
<path d="M17.8855 8.375H6.22754V17.1718C6.22754 17.9821 6.88446 18.639 7.69478 18.639H8.6685V21.6402C8.6685 22.3905 9.27874 23.0008 10.029 23.0008C10.7793 23.0008 11.3896 22.3905 11.3896 21.6402V18.639H13.2036V21.6402C13.2036 22.3905 13.8139 23.0008 14.5642 23.0008C15.3144 23.0008 15.9247 22.3905 15.9247 21.6402V18.639H16.8984C17.7087 18.639 18.3657 17.9821 18.3657 17.1718V8.375H17.8855Z" fill="white"/>
<circle cx="9.6915" cy="5.12509" r="1.37509" fill="white"/>
<circle cx="14.2755" cy="5.12509" r="1.37509" fill="white"/>
</svg>
