<svg width="24" height="24" viewBox="0 0 24 24" fill="none" xmlns="http://www.w3.org/2000/svg">
<g clip-path="url(#clip0_2253_35828)">
<path d="M19.4591 8.4998C19.338 8.5988 17.1994 9.8682 17.1994 12.6908C17.1994 15.9556 19.9206 17.1106 20.0021 17.1392C19.9896 17.2096 19.5698 18.721 18.5673 20.261C17.6735 21.6162 16.7399 22.9692 15.3198 22.9692C13.8996 22.9692 13.5342 22.1002 11.8947 22.1002C10.2971 22.1002 9.72899 22.9978 8.42998 22.9978C7.13096 22.9978 6.22457 21.7438 5.18243 20.2038C3.97531 18.3954 3 15.586 3 12.9196C3 8.6428 5.6398 6.3746 8.23784 6.3746C9.6183 6.3746 10.769 7.3294 11.6357 7.3294C12.4607 7.3294 13.7472 6.3174 15.3177 6.3174C15.9129 6.3174 18.0515 6.3746 19.4591 8.4998ZM14.5721 4.5068C15.2216 3.695 15.6811 2.5686 15.6811 1.4422C15.6811 1.286 15.6685 1.1276 15.6414 1C14.5846 1.0418 13.3274 1.7414 12.5693 2.6676C11.9741 3.3804 11.4185 4.5068 11.4185 5.6486C11.4185 5.8202 11.4457 5.9918 11.4582 6.0468C11.5251 6.06 11.6337 6.0754 11.7423 6.0754C12.6904 6.0754 13.8829 5.4066 14.5721 4.5068Z" fill="white"/>
</g>
<defs>
<clipPath id="clip0_2253_35828">
<rect width="17" height="22" fill="white" transform="translate(3 1)"/>
</clipPath>
</defs>
</svg>
