<svg width="17" height="15" viewBox="0 0 17 15" fill="none" xmlns="http://www.w3.org/2000/svg">
  <path
    d="M0 7.72607C0 7.34638 0.282154 7.03258 0.648229 6.98292L0.75 6.97607L15.75 6.97607C16.1642 6.97607 16.5 7.31186 16.5 7.72607C16.5 8.10577 16.2178 8.41957 15.8518 8.46923L15.75 8.47607L0.75 8.47607C0.335786 8.47607 0 8.14029 0 7.72607Z"
    fill="#0B102F"/>
  <path
    d="M9.17101 2.23296C8.87749 1.9407 8.87646 1.46582 9.16872 1.1723C9.43442 0.905462 9.85103 0.88036 10.1451 1.09758L10.2294 1.17002L16.2794 7.19402C16.547 7.4605 16.5714 7.87862 16.3524 8.17269L16.2794 8.25692L10.2294 14.2819C9.93593 14.5742 9.46105 14.5732 9.16877 14.2797C8.90305 14.0129 8.87971 13.5962 9.09817 13.303L9.17096 13.2191L14.687 7.72519L9.17101 2.23296Z"
    fill="#0B102F"/>
</svg>
