<svg width="56" height="56" viewBox="0 0 56 56" fill="none" xmlns="http://www.w3.org/2000/svg">
  <rect x="0.75" y="0.75" width="54.5" height="54.5" rx="27.25" stroke="#0B102F" stroke-width="1.5"/>
  <path
    d="M36 28.2739C36 28.6536 35.7178 28.9674 35.3518 29.0171L35.25 29.0239L20.25 29.0239C19.8358 29.0239 19.5 28.6881 19.5 28.2739C19.5 27.8942 19.7822 27.5804 20.1482 27.5308L20.25 27.5239L35.25 27.5239C35.6642 27.5239 36 27.8597 36 28.2739Z"
    fill="black"/>
  <path
    d="M26.829 33.767C27.1225 34.0593 27.1235 34.5342 26.8313 34.8277C26.5656 35.0945 26.149 35.1196 25.8549 34.9024L25.7706 34.83L19.7206 28.806C19.453 28.5395 19.4286 28.1214 19.6476 27.8273L19.7206 27.7431L25.7706 21.7181C26.0641 21.4258 26.5389 21.4268 26.8312 21.7203C27.0969 21.9871 27.1203 22.4038 26.9018 22.697L26.829 22.7809L21.313 28.2748L26.829 33.767Z"
    fill="black"/>
</svg>
