<svg width="56" height="56" viewBox="0 0 56 56" fill="none" xmlns="http://www.w3.org/2000/svg">
  <rect x="55.25" y="55.25" width="54.5" height="54.5" rx="27.25" transform="rotate(180 55.25 55.25)" stroke="#000"
        stroke-width="1.5"/>
  <path
    d="M20 27.7261C20 27.3464 20.2822 27.0326 20.6482 26.9829L20.75 26.9761L35.75 26.9761C36.1642 26.9761 36.5 27.3119 36.5 27.7261C36.5 28.1058 36.2178 28.4196 35.8518 28.4692L35.75 28.4761L20.75 28.4761C20.3358 28.4761 20 28.1403 20 27.7261Z"
    fill="black"/>
  <path
    d="M29.171 22.233C28.8775 21.9407 28.8765 21.4658 29.1687 21.1723C29.4344 20.9055 29.851 20.8804 30.1451 21.0976L30.2294 21.17L36.2794 27.194C36.547 27.4605 36.5714 27.8786 36.3524 28.1727L36.2794 28.2569L30.2294 34.2819C29.9359 34.5742 29.4611 34.5732 29.1688 34.2797C28.9031 34.0129 28.8797 33.5962 29.0982 33.303L29.171 33.2191L34.687 27.7252L29.171 22.233Z"
    fill="black"/>
</svg>
