<svg width="24" height="24" viewBox="0 0 24 24" fill="none" xmlns="http://www.w3.org/2000/svg">
<mask id="mask0_2253_35834" style="mask-type:luminance" maskUnits="userSpaceOnUse" x="3" y="2" width="18" height="20">
<path fill-rule="evenodd" clip-rule="evenodd" d="M3.00049 2.00781H20.0532V21.8613H3.00049V2.00781Z" fill="white"/>
</mask>
<g mask="url(#mask0_2253_35834)">
<path fill-rule="evenodd" clip-rule="evenodd" d="M7.57359 3.50781C5.91659 3.50781 4.54059 4.84981 4.50159 6.50481V17.1998C4.46459 18.9128 5.81459 20.3238 7.51059 20.3618H15.5746C17.2436 20.2928 18.5656 18.9058 18.5536 17.2058V8.33581L13.9186 3.50781H7.58559H7.57359ZM7.58559 21.8618H7.47659C4.95459 21.8048 2.94659 19.7068 3.00159 17.1838V6.48681C3.05959 4.00581 5.10859 2.00781 7.57159 2.00781H7.58859H14.2386C14.4426 2.00781 14.6376 2.09081 14.7796 2.23781L19.8446 7.51481C19.9786 7.65381 20.0536 7.84081 20.0536 8.03381V17.1998C20.0716 19.7088 18.1176 21.7588 15.6046 21.8608L7.58559 21.8618Z" fill="white"/>
</g>
<path fill-rule="evenodd" clip-rule="evenodd" d="M19.2986 8.984H16.5436C14.7136 8.979 13.2256 7.487 13.2256 5.659V2.75C13.2256 2.336 13.5616 2 13.9756 2C14.3896 2 14.7256 2.336 14.7256 2.75V5.659C14.7256 6.663 15.5426 7.481 16.5456 7.484H19.2986C19.7126 7.484 20.0486 7.82 20.0486 8.234C20.0486 8.648 19.7126 8.984 19.2986 8.984Z" fill="white"/>
<path fill-rule="evenodd" clip-rule="evenodd" d="M13.7887 16.1094H8.38867C7.97467 16.1094 7.63867 15.7734 7.63867 15.3594C7.63867 14.9454 7.97467 14.6094 8.38867 14.6094H13.7887C14.2027 14.6094 14.5387 14.9454 14.5387 15.3594C14.5387 15.7734 14.2027 16.1094 13.7887 16.1094Z" fill="white"/>
<path fill-rule="evenodd" clip-rule="evenodd" d="M11.7442 12.3594H8.38818C7.97418 12.3594 7.63818 12.0234 7.63818 11.6094C7.63818 11.1954 7.97418 10.8594 8.38818 10.8594H11.7442C12.1582 10.8594 12.4942 11.1954 12.4942 11.6094C12.4942 12.0234 12.1582 12.3594 11.7442 12.3594Z" fill="white"/>
</svg>
